<?xml version="1.0" encoding="UTF-8" standalone="no" ?>
<!DOCTYPE svg PUBLIC "-//W3C//DTD SVG 1.1//EN" "http://www.w3.org/Graphics/SVG/1.1/DTD/svg11.dtd">
<svg xmlns="http://www.w3.org/2000/svg" xmlns:xlink="http://www.w3.org/1999/xlink" version="1.1" width="1280" height="1024" viewBox="0 0 1280 1024" xml:space="preserve">
<desc>Created with Fabric.js 5.3.0</desc>
<defs>
</defs>
<g transform="matrix(1 0 0 1 640 512)" id="background-logo"  >
<rect style="stroke: none; stroke-width: 0; stroke-dasharray: none; stroke-linecap: butt; stroke-dashoffset: 0; stroke-linejoin: miter; stroke-miterlimit: 4; fill: rgb(255,255,255); fill-opacity: 0; fill-rule: nonzero; opacity: 1;"  paint-order="stroke"  x="-640" y="-512" rx="0" ry="0" width="1280" height="1024" />
</g>
<g transform="matrix(1.9211538461538462 0 0 1.9211538461538462 637.0611360718872 409.0503121486486)" id="logo-logo"  >
<g style=""  paint-order="stroke"   >
		<g transform="matrix(0.40340856651081813 0 0 0.40340856651081813 0 -9.72419367056591)"  >
<path style="stroke: none; stroke-width: 1; stroke-dasharray: none; stroke-linecap: butt; stroke-dashoffset: 0; stroke-linejoin: miter; stroke-miterlimit: 4; fill: rgb(243,231,149); fill-rule: nonzero; opacity: 1;"  paint-order="stroke"  transform=" translate(-399.99999245000004, -377.84877774999995)" d="M 400.0000305 560.7295532 C 415.9140625 560.7288818000001 431.3304748 558.3908081000001 445.9599609 554.0274048 C 444.0846862 556.4003296 440.7392273 558.9355469 437.5674743 561.053833 C 425.4560851 563.8648682 412.9051513 565.3574829 400.0192565 565.3596191 L 400.0192565 565.3600463 L 400.00775139999996 565.3600463 C 400.00512689999994 565.3600463 400.00265499999995 565.3599242 400.0000305 565.3599242 C 399.997406 565.3599242 399.994873 565.3600463 399.99224849999996 565.3600463 L 399.98074339999994 565.3600463 L 399.98074339999994 565.3596191 C 387.0948485999999 565.3574829 374.5439147999999 563.8648681000001 362.43252559999996 561.053833 C 359.26077269999996 558.9355469000001 355.91531369999996 556.4003296000001 354.040039 554.0274048 C 368.6695251 558.3908081 384.0859985 560.7288818 400.0000305 560.7295532 z M 555.8969727 291.3508606 C 555.0817261 289.66296389999997 550.7246705 285.8233032 548.4856568 284.660553 C 546.2466431 283.49783329999997 548.4856568 287.0391846 548.4856568 287.0391846 C 548.4861451 287.0401612 548.4866944 287.0410157 548.4871827000001 287.0419922 C 562.760254 313.6086426 570.9790650000001 344.3308411 571.1063844 377.0673523 C 571.9977418 383.2837219 573.3521119000001 390.6573792 575.0769044 394.1185303 C 575.5167848 388.7474671 575.7366944 383.3183289 575.7366944 377.84298709999996 C 575.7366943 346.670166 568.5599976 317.2340088 555.8969727 291.3508606 z M 543.0233765 269.006897 C 528.7235718000001 247.67227179999998 510.34548950000004 229.67616269999996 489.10836800000004 216.29978949999997 L 489.10595710000007 216.29109199999996 L 488.82385260000007 216.11637889999997 C 488.7716981000001 216.08366409999996 488.72082530000006 216.04896559999997 488.66870120000004 216.01632699999996 C 488.6689759 216.01780709999997 488.6691895 216.01922619999996 488.6694641 216.02070629999997 L 486.53320310000004 214.69764719999998 C 474.62515260000004 207.46614089999997 461.86077880000005 201.69206249999996 448.42562860000004 197.5839997 C 448.423645 197.5834351 448.4216003 197.58287049999998 448.41961660000004 197.582306 C 447.46325670000004 197.2865449 443.75338740000007 196.72901929999998 439.39315790000006 197.8916932 C 435.03292840000006 199.0544434 439.6940612000001 199.94453439999998 439.6940612000001 199.94453439999998 C 439.69519040000006 199.9448091 439.6963195000001 199.94509899999997 439.69744870000005 199.94537359999998 C 477.06423950000004 209.46069339999997 509.71972650000004 232.1262818 533.1260376 263.0800782 C 536.0894775 265.6614685 539.5969849 268.0924988 543.0233765 269.006897 z M 251.5128021 287.0419922 C 251.5132904 287.0410156 251.51385499999998 287.0401611 251.5143585 287.0391846 C 252.64198299999998 284.9069214 251.10336299999997 282.9164124 248.92321779999997 283.4978333 C 246.74313359999996 284.0791626 244.10302739999997 291.35086060000003 244.10302739999997 291.35086060000003 C 231.43997199999998 317.2340088 224.26329049999998 346.67016600000005 224.26329049999998 377.8429871 C 224.26329049999998 383.31832890000004 224.48323069999998 388.7474671 224.92312629999998 394.11853030000003 C 226.64791879999999 390.65737920000004 228.00227359999997 383.283722 228.89363109999996 377.06735230000004 C 229.0209503 344.3308411 237.2397614 313.6086426 251.5128021 287.0419922 z M 360.3059387 199.9445343 C 360.3059387 199.9445343 365.1963501 199.56314089999998 364.4696655 198.54573059999998 C 363.7429199 197.52839659999998 355.0420532 196.11010739999998 351.5803833 197.5823059 C 351.5783997 197.58287049999998 351.576355 197.5834351 351.5743713 197.5839996 C 338.1392212 201.6920623 325.3748474 207.4661407 313.4667968 214.69764709999998 L 311.3312988 216.0163269 C 289.9066772 229.4208221 271.3757934 247.5240326 256.9766235 269.006897 C 260.40304560000004 268.0924988 263.9105529 265.66146849999996 266.87396240000004 263.0800782 C 290.28027340000006 232.12628180000002 322.9357605 209.4606934 360.3025513 199.9453736 C 360.3036804 199.9450989 360.3048096 199.944809 360.3059387 199.9445343 z M 400.0000305 194.9679871 C 408.3782348 194.96841429999998 416.60610959999997 195.6164551 424.6719665 196.8663025 C 427.2418518 195.8938294 429.1518249 194.3890534 430.4136047 193.15051269999998 C 420.536499 191.29980469999998 410.3817749 190.3394928 400.0192566 190.33779909999998 L 400.0192566 190.33750919999997 L 400.0077515 190.33750919999997 C 400.00512699999996 190.33750919999997 400.00265509999997 190.33750919999997 400.0000306 190.33750919999997 C 399.99740610000003 190.33750919999997 399.9948731 190.33750919999997 399.9922486 190.33750919999997 L 399.98074349999996 190.33750919999997 L 399.98074349999996 190.33779909999998 C 389.6182252 190.3394928 379.4635011 191.29980469999998 369.58639539999996 193.15051269999998 C 370.84817519999996 194.38905329999997 372.75814829999996 195.8938294 375.32803359999997 196.8663025 C 383.3938904 195.6164551 391.6218262 194.9684143 400.0000305 194.9679871 z M 570.2003784 407.6194153 C 570.8544310999999 409.072815 571.944519 416.6602173 571.7019043 417.8316345 C 567.9158936 436.411499 561.5287476 453.97406 552.967041 470.0561828 C 552.9570923 470.0749816 552.9463501 470.093048 552.9364014 470.11199949999997 C 552.9364014 470.11199949999997 538.8066407 492.3533935 537.0625611 493.87948609999995 C 535.3184815000001 495.40560909999994 522.3830567 506.66952519999995 522.3830567 506.66952519999995 L 522.6499024 505.22344979999997 C 546.0201417 479.526703 562.399292 446.53781139999995 568.4774781 409.7987672 C 568.477478 409.7987671 569.5463257 406.1659851 570.2003784 407.6194153 z M 542.2948608 482.9788818 C 542.2948608 482.9788818 542.3598022 482.8564453 542.4522094 482.6823425 C 540.9488525 484.3504944 539.413391 486.1347656 537.8735961 487.9852295 L 542.2948608 482.9788818 z M 229.1751099 407.0347595 C 228.3614655 405.2039795 228.2980957 417.8316345 228.2980957 417.8316345 C 232.0841217 436.411499 238.4712524 453.97406 247.032959 470.0561828 C 247.042923 470.0749816 247.0536499 470.093048 247.0636139 470.11199949999997 C 247.0636139 470.11199949999997 258.5539551 487.83016969999994 262.2509766 491.37936399999995 C 265.9480591 494.92855829999996 274.7033387 504.7229614 277.3500977 505.22344969999995 C 253.97987369999998 479.5267028999999 237.6007386 446.53781129999993 231.5224915 409.79876709999996 C 231.5224915 409.7987671 229.9887543 408.865509 229.1751099 407.0347595 z" stroke-linecap="round" />
</g>
		<g transform="matrix(0.40340856651081813 0 0 0.40340856651081813 0 2.842171e-14)"  >
<path style="stroke: none; stroke-width: 1; stroke-dasharray: none; stroke-linecap: butt; stroke-dashoffset: 0; stroke-linejoin: miter; stroke-miterlimit: 4; fill: rgb(236,215,81); fill-rule: nonzero; opacity: 1;"  paint-order="stroke"  transform=" translate(-400.0000017586858, -399.9999897503422)" d="M 528.843689 267.0678711 C 539.5352173 271.5088806 550.5778809000001 275.4032898 560.4625244 281.6117249 C 578.8217773 292.5300599 588.2177124 309.5650025 575.9360351 329.3719788 C 575.8818969 318.35089120000004 574.9633178 307.9840699 567.2027587 300.1956788 C 564.1046142 296.840912 560.1187743 294.0057374 555.8969726 291.3508607 C 555.5563354000001 291.1366578 555.2172241000001 290.9212953 554.8737792000001 290.7093507 C 552.8278808 289.4562379 550.6835937000001 288.235901 548.4856566000001 287.0391847 C 542.038391 283.528412 535.1204222000001 280.2224122 528.8002318000001 276.9032594 C 528.8002318000001 276.90310680000005 524.8501586000001 274.7803956 524.8501586000001 274.7803956 L 521.0375976000001 272.38610850000003 C 517.3573608000002 270.10794080000005 513.5390014000002 267.11862190000005 510.27365110000017 264.25714120000004 C 507.49081420000016 261.8220216 504.86004640000016 258.97384650000004 502.51165770000017 256.1120912 C 501.8692932000002 255.209427 500.53640750000017 253.3520967 499.90130610000017 252.4398195 C 496.3771972000002 246.8355867 493.45587150000017 240.4165956 493.3468017000002 233.7234651 C 500.1935425 249.1846771 513.843811 260.1574097 528.843689 267.0678711 z M 572.0947876 433.8436584 C 580.9934692 420.7141418 576.0747681 406.6692504 568.6406860000001 394.2953186 C 561.4193115 383.1281433 560.3223877 370.9932861 563.9359131000001 357.9604187 C 557.5500488000001 362.1941223 554.3179932000002 369.9365845 554.1286621000002 377.49804689999996 C 553.8472900000002 385.14443969999996 557.3396606000001 392.43203739999996 561.4738769000002 398.58312989999996 C 564.1751098000002 402.51638799999995 566.5758666000002 406.14855959999994 568.4774780000001 409.79876709999996 C 569.8458252000001 412.42523189999997 570.9470215000001 415.06655879999994 571.7019043000001 417.83163449999995 C 573.0001221 422.5868835 573.2823486 427.7182922 572.0947876 433.8436584 z M 580.9797363 420.8604126 C 580.9797363 420.8604126 630.2717285 368.6761475 630.2248535 323.52893070000005 C 630.1683349 269.06652840000004 593.7255249 258.64120490000005 593.7255249 258.64120490000005 C 605.8919678 277.1806336 605.3126221 293.98184210000005 605.3126221 293.98184210000005 C 593.1461792 256.9031373 573.4277344 247.63354500000005 573.4277344 247.63354500000005 C 627.2873535 330.4812317 580.9797363 420.8604126 580.9797363 420.8604126 z M 594.3048706 414.2964172 C 594.3048706 414.2964172 602.1002808 408.9623718 609.5933838 401.3970947 C 629.6072388 381.1905517 643.6283569 377.9902343 659.4799194 388.30630490000004 C 659.4799194 388.30630490000004 659.6600952 363.1581115 632.8457030999999 368.17959590000004 C 614.2524414 371.661377 605.3656616 403.2090759 594.3048706 414.2964172 z M 666.161377 493.5919495 C 661.1929932 481.9471436 650.3829957 474.6712647 640.9973755 470.8579712 C 619.6697998 462.1930237 592.208313 470.4946594 571.8322754 486.076416 C 550.3678589 502.490448 516.6743775 526.5539550999999 492.99530029999994 536.8805542 C 508.28341679999994 526.6635132 521.9997559 514.020813 533.6585693 499.447113 C 533.6616821 499.4432983 533.6646728 499.4390564 533.6677856 499.4351196 C 547.6401977 486.204834 568.0928955 466.65252680000003 581.614685 452.8974609 C 603.861145 430.2674865 634.1622314 420.2950439 653.3401489 424.1305236 C 653.3401489 424.1305236 623.0390625 398.048706 587.7516479000001 426.4319762 C 573.3405151000001 438.02352890000003 562.4837036000001 456.7877806 552.9364013 470.1119994 C 550.2635497000001 473.8420714 547.6934203000001 477.1459655 545.1766967000001 479.7465819 C 542.5026244000001 482.5096739 539.6219482000001 485.8340453 536.7743529 489.3065184 L 536.7724608000001 489.306671 C 536.7724608000001 489.306671 536.7394408000001 489.3480834 536.6885985000001 489.41137679999997 C 536.1043089000001 490.12469469999996 535.5211791000002 490.84225449999997 534.9420165000001 491.56433089999996 C 531.8080443000001 495.39544659999996 525.4750976000001 502.97879009999997 522.6499022000002 505.2234496 C 522.6383055000001 505.23504629999996 522.6383055000001 505.246643 522.6267088000002 505.246643 C 506.43215920000017 523.050415 486.8921202000002 537.3580322 465.0716856000002 546.9776 C 465.0703428000002 546.9781493 465.0690001000002 546.9786986 465.0676573000002 546.9793090000001 C 465.06906110000017 546.9774779 465.0705565000002 546.9754638 465.07196030000017 546.9735107 C 472.04064930000015 537.4464721 476.80987530000016 526.5305175 481.91479480000015 516.0311279 C 487.21655260000017 505.3466797 492.68032820000013 498.0076294 504.29092400000013 494.0140075 C 519.9645995000001 488.86270129999997 534.8626708000002 479.6947021 544.6558837000001 466.2434387 C 534.4459838000001 472.8417663 523.9814452000002 478.01626580000004 512.7066039000001 481.9055786 C 509.0254821000001 483.1211243 505.0664977000001 484.1860046 501.3391112000001 485.2279968 C 486.9619139000001 489.27954100000005 479.0556029000001 498.80642700000004 473.5686644000001 512.1418457 C 471.9248351000001 515.961792 470.5242003000001 519.8164673 469.1351012000001 523.6134033 C 463.9028014000001 538.3030395 456.3785094000001 552.6688843 443.91137680000014 562.4156494 C 439.45462020000014 565.9578857 434.09500110000016 569.0137939 428.81640610000017 571.2711792 C 426.97589100000016 571.8961792 422.2413634000002 573.5863647 420.42395000000016 573.9103394 C 413.7855528000002 575.703125 406.85836770000014 576.1783448 400.00003030000016 576.1676026 C 393.14172340000016 576.1783448 386.2144468000002 575.7031251 379.57604960000015 573.9103394 C 377.75863630000015 573.5863648 373.02410870000017 571.8961792 371.18359350000014 571.2711792 C 365.90499850000015 569.0137939 360.5453794000001 565.9578857 356.08862280000017 562.4156494 C 343.62149020000015 552.6688843000001 336.09719820000015 538.3030395 330.8648984000002 523.6134033 C 329.4757993000002 519.8164673 328.0751645000002 515.961792 326.4313352000002 512.1418457 C 320.9443967000002 498.806427 313.0380857000002 489.279541 298.6608884000002 485.22799679999997 C 294.9335019000002 484.1860046 290.9745176000002 483.1211242 287.2934262000002 481.90557859999996 C 276.0185544000002 478.01626589999995 265.55401580000023 472.84176629999996 255.34411590000022 466.24343869999996 C 265.1372983000002 479.6947021 280.03540010000023 488.86270139999993 295.70907560000023 494.01400749999993 C 307.3196713000002 498.00762929999996 312.78344690000023 505.34667959999996 318.0852048000002 516.0311278999999 C 323.19012420000024 526.5305174999999 327.9593503000002 537.4464720999999 334.9280393000002 546.9735106999999 C 334.9294431000002 546.9754637999999 334.9309385000002 546.9774779999999 334.9323423000002 546.979309 C 334.9309995000002 546.9786985999999 334.9296568000002 546.9781492999999 334.92831400000017 546.9775999999999 C 313.1078794000002 537.3580321 293.5678404000002 523.0504149 277.3732603000002 505.24664299999995 C 277.3616636000002 505.24664299999995 277.3616636000002 505.23504629999996 277.3500975000002 505.2234495999999 C 274.5248717000002 502.97879019999993 268.1919249000002 495.3954466999999 265.05795270000016 491.5643308999999 C 264.4788206000002 490.8422544999999 263.89572130000016 490.1246946999999 263.31140120000015 489.4113767999999 C 263.26052840000017 489.3480832999999 263.2275389000001 489.30667099999994 263.2275389000001 489.30667099999994 L 263.2256468000001 489.30651839999996 C 260.3780211000001 485.83404529999996 257.4973448000001 482.50967389999994 254.8233336000001 479.74658189999997 C 252.3065947000001 477.14596539999997 249.7364348000001 473.84207139999995 247.0636138000001 470.11199939999995 C 237.5162963000001 456.78778059999996 226.6595000000001 438.0235289 212.2483367000001 426.43197619999995 C 176.9609527000001 398.04870589999996 146.6598662000001 424.13052359999995 146.6598662000001 424.13052359999995 C 165.8377837000001 420.29504389999994 196.1388854000001 430.26748649999996 218.38528430000008 452.89746089999994 C 231.90713490000007 466.6525267999999 252.3597258000001 486.2048338999999 266.33212270000007 499.43511959999995 C 266.3352965000001 499.43905639999997 266.33825670000004 499.4431761999999 266.34146110000006 499.44711299999994 C 278.00024410000003 514.020813 291.71658320000006 526.6635130999999 307.00469960000004 536.8805541999999 C 283.32559190000006 526.5539550999999 249.63214100000005 502.4904479999999 228.16773980000005 486.0764159999999 C 207.79167170000005 470.4946593999999 180.33020010000004 462.19302369999986 159.00263970000003 470.8579711999999 C 149.61698910000004 474.6712646999999 138.80702200000002 481.9471435999999 133.83860770000004 493.5919494999999 C 118.56979360000004 529.3781127999998 154.52265920000005 543.6116943999999 154.52265920000005 543.6116943999999 C 127.48108660000005 507.3643798999999 201.70149220000005 502.18621829999995 250.60646050000005 524.0497436999999 C 276.86193840000004 535.7873536 311.5596618000001 546.1923828999999 338.08129880000007 553.3181762999999 C 338.08398430000005 553.3187255999999 338.08666990000006 553.3195800999999 338.08935540000004 553.3203124999999 L 338.08850090000004 553.3211059999999 L 340.78540030000005 554.3820800999998 C 340.78717030000007 554.3842162999998 340.78915400000005 554.3860473999998 340.7909240000001 554.3881225999999 C 350.06253040000007 564.9191894999999 362.01815790000006 573.2050781999999 375.5476379000001 577.1052856999999 C 376.6242370000001 577.4179077999999 377.7007751000001 577.7188720999999 378.7773132000001 577.9851074999998 C 378.9452820000001 578.0266113999998 379.1144104000001 578.0609741999998 379.2825622000001 578.1013794999998 C 379.1132202000001 578.0982666999997 378.94931020000007 578.0960083999997 378.7773132000001 578.0925903999998 C 367.1783142000001 577.8611450999998 349.7450866000001 576.6224365999998 336.5717773000001 571.8186035999998 C 295.81329340000013 556.9898681999998 259.5693359000001 574.1453857999999 266.78106690000016 611.6163330999998 C 266.78106690000016 611.6163330999998 290.01376340000013 575.0945434999998 332.46237180000014 579.0882568999998 C 365.14096070000016 582.1673584999998 382.85205080000014 581.6580810999998 382.85205080000014 581.6580810999998 C 382.85205080000014 581.6580810999998 371.5192566000001 587.5964965999998 347.97402960000016 586.1609497999998 C 324.42874150000017 584.7139893999998 306.6598511000002 594.8082275999998 301.8558350000002 610.1808472999998 C 301.8558350000002 610.1808472999998 319.6710816000002 601.6380005999997 345.5778199000002 603.9299927999998 C 362.07339490000015 605.4001465999999 368.5095521000002 584.4361573999998 399.7643433000002 583.0355225999998 L 399.9694519000002 583.0355225999998 L 400.0305481000002 583.0355225999998 L 400.2356567000002 583.0355225999998 C 431.49044800000024 584.4361573999998 437.9266052000002 605.4001465999999 454.4221801000002 603.9299927999998 C 480.32891840000025 601.6380005999998 498.1441650000002 610.1808472999998 498.1441650000002 610.1808472999998 C 493.3401489000002 594.8082276999997 475.5712585000002 584.7139893999997 452.02597040000023 586.1609497999998 C 428.48074330000026 587.5964966999998 417.14794920000026 581.6580810999998 417.14794920000026 581.6580810999998 C 417.14794920000026 581.6580810999998 434.85903930000023 582.1673583999998 467.53762820000026 579.0882568999998 C 509.98623660000027 575.0945434999998 533.2189331000003 611.6163330999998 533.2189331000003 611.6163330999998 C 540.4306641000003 574.1453857999998 504.1867065000003 556.9898682999998 463.42822270000033 571.8186035999997 C 450.2549134000003 576.6224365999998 432.82168580000035 577.8611450999997 421.22268680000036 578.0925903999997 C 421.05068970000036 578.0960083999997 420.88677980000034 578.0982666999997 420.71743780000037 578.1013794999997 C 420.88558970000037 578.0609741999997 421.05471810000034 578.0266113999996 421.22268680000036 577.9851074999997 C 422.29922490000035 577.7188720999997 423.37576300000035 577.4179077999997 424.45236210000036 577.1052856999997 C 437.98184210000034 573.2050781999998 449.93746950000036 564.9191894999998 459.2090760000004 554.3881225999997 C 459.2108460000004 554.3860473999997 459.2128297000004 554.3842163999998 459.2145997000004 554.3820800999997 L 461.9114991000004 553.3211059999998 L 461.9106446000004 553.3203124999998 C 461.9133301000004 553.3195800999998 461.9160157000004 553.3187255999998 461.9187012000004 553.3181762999998 C 488.4403382000004 546.1923827999998 523.1380616000004 535.7873534999998 549.3935547000003 524.0497436999998 C 598.2985230000003 502.1862182999998 672.5189209000004 507.3643798999998 645.4773560000003 543.6116943999998 C 645.477356 543.6116943 681.4302368 529.3781128 666.161377 493.5919495 z M 486.8600464 552.1273804 C 559.586792 532.1881714 562.7952881 570.8868408 597.5110473999999 557.0670166 C 612.024231 551.2895508 630.1136475 548.6694335999999 630.1136475 548.6694335999999 C 578.7399902 509.1513672 486.8600464 552.1273804 486.8600464 552.1273804 z M 313.4667969 214.6976471 C 325.0224915 196.61238100000003 335.4506531 193.92303470000002 351.5803833 197.58230590000002 C 354.31332399999997 198.20222470000002 357.2122498 199.00498960000002 360.3059387 199.94453430000002 C 362.74679560000004 200.68568420000003 365.30664060000004 201.51007080000002 368.0090637 202.4008636 C 378.3437195 205.8385772 388.9173584 209.97207640000002 399.98406980000004 210.038208 L 399.98406980000004 210.0391998 C 399.9893799 210.0391998 399.99475100000006 210.03877260000002 400.00003050000004 210.03877260000002 C 400.0053406 210.03877260000002 400.01062010000004 210.0391998 400.0159302 210.0391998 L 400.0159302 210.038208 C 411.0826416 209.9720764 421.65628050000004 205.8385773 431.99093630000004 202.4008636 C 434.6933594 201.5100708 437.2532044000001 200.6856842 439.69406130000004 199.94453430000002 C 442.7877503 199.00498960000002 445.68667600000003 198.20222470000002 448.41961670000006 197.58230590000002 C 464.54934690000005 193.92303470000002 474.97750850000006 196.61238100000003 486.53320310000004 214.6976471 C 487.38421630000005 216.0296021 488.23995970000004 217.4274139 489.10595700000005 218.930069 C 489.00225830000005 217.9604187 488.85317990000004 216.9878083 488.6687011 216.0163269 C 486.21328730000005 203.08874509999998 476.7171935 190.4033661 463.07479850000004 188.7105102 C 448.74865710000006 186.5396118 436.34362780000004 195.688507 424.52691640000006 201.21218869999998 C 418.68811020000004 203.9569397 412.6578673000001 206.24356079999998 406.30783070000007 207.30363459999998 C 404.21838370000006 207.61267089999998 402.11093130000006 207.77079769999997 400.01599110000006 207.71739189999997 C 400.0107116000001 207.71752919999997 400.00534050000005 207.71723929999996 400.00003040000007 207.71739189999997 C 399.9946593000001 207.71752919999997 399.98937980000005 207.71739189999997 399.98400870000006 207.71739189999997 C 397.88906850000006 207.77079769999997 395.78161610000006 207.61267079999996 393.69216910000006 207.30363459999998 C 387.34213250000005 206.2435607 381.3118896000001 203.9569397 375.47308340000006 201.21218869999998 C 363.6563720000001 195.68850709999998 351.25143420000006 186.5396118 336.9252013000001 188.7105102 C 323.28280630000006 190.40336599999998 313.7867125000001 203.08874509999998 311.3312987000001 216.0163269 C 311.1468199000001 216.9878082 310.9977416000001 217.9604187 310.8940428000001 218.930069 C 311.7600403 217.4274139 312.6157837 216.0296021 313.4667969 214.6976471 z M 224.0639801 329.3719788 C 224.11810300000002 318.35089120000004 225.0366669 307.9840699 232.7972259 300.1956788 C 235.8953704 296.840912 239.8812103 294.0057374 244.1030273 291.3508607 C 244.4436492 291.1366578 244.7827911 290.9212953 245.1262359 290.7093507 C 247.1721343 289.4562379 249.31639090000002 288.235901 251.51435850000001 287.0391847 C 257.9616699 283.528412 264.8795471 280.2224122 271.1997986 276.9032594 C 271.1997986 276.90310680000005 275.1498718 274.7803956 275.1498718 274.7803956 L 278.9624023 272.38610850000003 C 282.64266960000003 270.10794080000005 286.46105950000003 267.11862190000005 289.7263488 264.25714120000004 C 292.5092467 261.8220216 295.1399535 258.97384650000004 297.4883422 256.1120912 C 298.13070669999996 255.209427 299.4635924 253.3520967 300.0986938 252.4398195 C 303.62280269999997 246.8355867 306.5441284 240.4165956 306.65319819999996 233.7234651 C 299.80645749999996 249.1846773 286.15618889999996 260.1574098 271.15634149999994 267.0678712 C 260.46478269999994 271.5088807 249.42208859999994 275.4032899 239.53747549999994 281.61172500000004 C 221.1782074 292.5300598 211.7823029 309.5650024 224.0639801 329.3719788 z M 238.5261536 398.5831299 C 242.66035459999998 392.4320374 246.15267949999998 385.1444397 245.8713379 377.4980469 C 245.68199159999998 369.93658450000004 242.4499512 362.1941223 236.06408689999998 357.9604187 C 239.67758179999998 370.9932861 238.58068849999998 383.1281433 231.35928339999998 394.2953186 C 223.92521659999997 406.6692505 219.00660699999997 420.7141418 227.90518179999998 433.8436584 C 226.71765129999997 427.7182922 226.99990839999998 422.5868835 228.29809559999998 417.8316345 C 229.0529479 415.0665588 230.15415939999997 412.4252319 231.52249139999998 409.7987671 C 233.4241333 406.1485596 235.8248596 402.5163879 238.5261536 398.5831299 z M 226.5722351 247.6335449 C 226.5722351 247.6335449 206.8538208 256.9031372 194.6873779 293.98184200000003 C 194.6873779 293.98184200000003 194.1080322 277.1806335 206.2744598 258.6412048 C 206.2744598 258.6412048 169.8316803 269.0665283 169.77516169999998 323.5289306 C 169.72824089999997 368.67614740000005 219.02024839999999 420.86041250000005 219.02024839999999 420.86041250000005 C 219.02024839999999 420.86041250000005 172.7126465 330.4812317 226.5722351 247.6335449 z M 190.4066315 401.3970947 C 197.899704 408.9623718 205.6950989 414.2964172 205.6950989 414.2964172 C 194.63432310000002 403.2090759 185.7475434 371.6613769 167.1542664 368.1795959 C 140.3399201 363.15811149999996 140.5200806 388.3063049 140.5200806 388.3063049 C 156.3716583 377.9902344 170.392746 381.1905518 190.4066315 401.3970947 z M 313.1399536 552.1273804 C 313.1399536 552.1273804 221.26010130000003 509.1513672 169.88636780000002 548.6694336 C 169.88636780000002 548.6694336 187.9757385 551.2895508 202.48892210000002 557.0670166000001 C 237.2047272 570.8868408 240.4132233 532.1881714 313.1399536 552.1273804 z" stroke-linecap="round" />
</g>
</g>
</g>
<g transform="matrix(1.9211538461538462 0 0 1.9211538461538462 610.5263423120075 386.14008408466583)" id="tagline-fa3ee08b-289b-4213-877a-359bf9b12475-logo"  >
<g style=""  paint-order="stroke"   >
		<g transform="matrix(1 0 0 1 0 0)" id="tagline-fa3ee08b-289b-4213-877a-359bf9b12475-logo-path-0"  >
<path style="stroke: none; stroke-width: 0; stroke-dasharray: none; stroke-linecap: butt; stroke-dashoffset: 0; stroke-linejoin: miter; stroke-miterlimit: 4; fill: rgb(236,216,85); fill-rule: nonzero; opacity: 1;"  paint-order="stroke"  transform=" translate(-26.325, 24.25)" d="M 52.01 -48.35 L 52.01 -49.29 L 38.9 -49.29 L 38.9 -48.21 C 40.98 -47.93 43.27 -46.13 44.27 -43.99 L 44.27 -10.32 C 31.38 -22.92 18.7 -36.03 6.88 -49.43 L 5.37 -49.43 L 5.37 -5.01 C 4.87 -4.01 4.44 -2.94 3.65 -2.22 C 2.79 -1.72 1.86 -1.43 1 -1 C 1 -0.86 0.64 -0.21 0.64 -0.07 L 0.86 0.07 L 13.75 0.07 L 13.9 -1 C 10.6 -1 9.1 -3.87 8.95 -6.73 L 8.95 -37.25 L 46.28 0.93 L 47.64 0.93 L 47.64 -43.99 C 47.93 -46.42 49.43 -47.93 52.01 -48.35 Z" stroke-linecap="round" />
</g>
</g>
</g>
<g transform="matrix(1.9211538461538462 0 0 1.9211538461538462 674.1436455022946 386.1792765150247)" id="tagline-78f1c03c-4662-4a4a-94d9-7dbc9dac59b9-logo"  >
<g style=""  paint-order="stroke"   >
		<g transform="matrix(1 0 0 1 0 0)" id="tagline-78f1c03c-4662-4a4a-94d9-7dbc9dac59b9-logo-path-0"  >
<path style="stroke: none; stroke-width: 0; stroke-dasharray: none; stroke-linecap: butt; stroke-dashoffset: 0; stroke-linejoin: miter; stroke-miterlimit: 4; fill: rgb(236,216,85); fill-rule: nonzero; opacity: 1;"  paint-order="stroke"  transform=" translate(-17.790000000000003, 25.085)" d="M 34.78 -6.68 L 33.77 -7.04 C 33.26 -6.1 32.53 -5.01 31.73 -4.28 C 30.72 -3.49 29.48 -2.76 28.25 -2.47 L 10.6 -2.47 L 10.6 -24.4 L 26 -24.4 C 27.81 -24.11 29.05 -22.87 29.63 -21.2 L 30.72 -21.35 L 30.72 -30.5 L 29.63 -30.5 C 29.19 -29.26 28.54 -28.25 27.52 -27.45 L 24.91 -27.16 L 10.6 -27.16 L 10.6 -47.71 L 24.62 -47.71 C 26.87 -47.71 29.05 -46.98 30.72 -45.46 C 31.15 -44.51 31.59 -43.64 31.95 -42.99 L 33.48 -42.99 L 33.48 -50.47 C 33.11 -50.61 32.68 -50.76 32.39 -50.9 C 31.73 -50.76 31.15 -50.61 30.72 -50.18 L 0.8 -50.18 L 0.94 -49.09 C 2.47 -48.94 3.85 -48.22 4.79 -46.98 L 4.79 -5.16 C 4.65 -3.99 4.14 -2.76 3.56 -1.52 C 2.76 -1.23 1.89 -1.09 0.94 -1.09 L 0.8 0 L 30.72 0 C 31.59 0.29 32.68 0.58 33.77 0.73 Z" stroke-linecap="round" />
</g>
</g>
</g>
<g transform="matrix(1.9211538461538462 0 0 1.9211538461538462 614.3680944480103 655.4656072319676)" id="text-logo"  >
<g style=""  paint-order="stroke"   >
		<g transform="matrix(1 0 0 1 0 0)" id="text-logo-path-0"  >
<path style="stroke: rgb(255,255,255); stroke-width: 0; stroke-dasharray: none; stroke-linecap: butt; stroke-dashoffset: 0; stroke-linejoin: miter; stroke-miterlimit: 4; fill: rgb(236,215,81); fill-rule: nonzero; opacity: 1;"  paint-order="stroke"  transform=" translate(-254.98499999999999, 18.015)" d="M 37.75 -35.1 L 37.75 -35.78 L 28.24 -35.78 L 28.24 -35 C 29.74 -34.79 31.41 -33.49 32.14 -31.93 L 32.14 -7.49 C 22.78 -16.64 13.57 -26.16 4.99 -35.88 L 3.9 -35.88 L 3.9 -3.64 C 3.54 -2.91 3.22 -2.13 2.65 -1.61 C 2.03 -1.25 1.35 -1.04 0.73 -0.73 C 0.73 -0.62 0.47 -0.16 0.47 -0.05 L 0.62 0.05 L 9.98 0.05 L 10.09 -0.73 C 7.7 -0.73 6.6 -2.81 6.5 -4.89 L 6.5 -27.04 L 33.59 0.68 L 34.58 0.68 L 34.58 -31.93 C 34.79 -33.7 35.88 -34.79 37.75 -35.1 Z M 83.3 -17.78 C 83.3 -27.51 75.66 -36.71 65.57 -36.71 L 65.05 -36.71 L 64.17 -36.71 C 62.56 -36.71 60.48 -36.35 58.71 -35.83 C 50.54 -33.44 45.81 -25.53 45.81 -17.58 C 45.81 -14.61 46.59 -11.6 48 -8.74 C 50.96 -3.48 56.21 -0.31 61.98 0.42 L 67.55 0.42 C 75.87 -0.68 81.85 -6.86 83.2 -14.98 C 83.3 -15.96 83.3 -17.06 83.3 -17.78 Z M 78.57 -18.36 C 78.57 -10.82 75.3 -2.7 67.44 -1.09 C 66.82 -0.99 65.94 -0.88 65.16 -0.88 C 59.9 -0.88 55.22 -3.48 52.73 -8.53 C 51.64 -11.23 50.86 -14.3 50.86 -17.47 C 50.86 -25.53 54.81 -34.06 63.39 -35.05 L 64.27 -35.05 C 69.63 -35.05 74.98 -32.19 77.06 -27.2 C 78.05 -24.7 78.57 -21.53 78.57 -18.36 Z M 113.31 -8.48 C 113.31 -12.84 110.14 -17 105.66 -18.2 C 109.41 -19.4 112.58 -22.78 112.58 -26.73 L 112.58 -27.35 C 112.01 -32.4 108.32 -35.2 103.58 -35.78 L 91.36 -35.78 L 91.36 -35.1 C 92.04 -35.1 92.66 -35 93.24 -34.79 C 93.76 -34.37 94.22 -33.38 94.22 -32.6 L 94.22 -3.9 C 94.22 -3.02 93.91 -2.03 93.44 -1.14 L 91.36 -0.62 L 91.36 0.05 L 103.38 0.05 C 105.14 0.05 107.02 -0.26 108.84 -0.83 C 110.6 -1.82 111.9 -3.33 112.79 -4.99 C 113.1 -6.19 113.31 -7.49 113.31 -8.48 Z M 108.63 -25.48 C 108.63 -21.01 103.95 -18.62 99.79 -18.62 C 99.37 -18.62 98.9 -18.72 98.49 -18.72 L 98.49 -34.37 C 99.22 -34.68 100.1 -34.79 100.98 -34.89 C 105.56 -34.89 108.32 -30.94 108.63 -26.73 Z M 109.25 -8.42 C 109.25 -2.5 105.56 -1.04 100.98 -1.04 C 99.16 -1.14 99.22 -1.56 98.49 -1.87 L 98.49 -17.52 C 98.9 -17.52 99.37 -17.58 99.79 -17.58 C 103.95 -17.58 109.25 -15.08 109.25 -9.67 Z M 146.74 -5.51 L 145.76 -5.82 C 144.56 -3.43 142.38 -1.92 139.72 -1.72 L 128.49 -1.72 L 128.49 -33.9 C 129.01 -34.58 129.79 -35 130.68 -35.1 L 130.68 -35.78 L 121.06 -35.78 L 121.06 -35.1 C 122.56 -35 124.02 -34.11 124.02 -32.4 L 124.02 -3.64 C 123.92 -2.91 123.66 -2.03 123.14 -1.25 C 122.82 -1.04 122.25 -0.94 121.84 -0.94 L 121.84 0.05 L 145.29 0.05 Z M 179.35 -4.78 L 178.62 -5.04 C 178.26 -4.37 177.74 -3.59 177.16 -3.07 C 176.44 -2.5 175.55 -1.98 174.67 -1.77 L 162.03 -1.77 L 162.03 -17.47 L 173.06 -17.47 C 174.36 -17.26 175.24 -16.38 175.66 -15.18 L 176.44 -15.29 L 176.44 -21.84 L 175.66 -21.84 C 175.34 -20.96 174.88 -20.23 174.15 -19.66 L 172.28 -19.45 L 162.03 -19.45 L 162.03 -34.16 L 172.07 -34.16 C 173.68 -34.16 175.24 -33.64 176.44 -32.55 C 176.75 -31.88 177.06 -31.25 177.32 -30.78 L 178.41 -30.78 L 178.41 -36.14 C 178.15 -36.24 177.84 -36.35 177.63 -36.45 C 177.16 -36.35 176.75 -36.24 176.44 -35.93 L 155.01 -35.93 L 155.12 -35.15 C 156.21 -35.05 157.2 -34.53 157.87 -33.64 L 157.87 -3.69 C 157.77 -2.86 157.4 -1.98 156.99 -1.09 C 156.42 -0.88 155.79 -0.78 155.12 -0.78 L 155.01 0 L 176.44 0 C 177.06 0.21 177.84 0.42 178.62 0.52 Z M 238.58 -4.78 L 237.85 -5.04 C 237.48 -4.37 236.96 -3.59 236.39 -3.07 C 235.66 -2.5 234.78 -1.98 233.9 -1.77 L 221.26 -1.77 L 221.26 -17.47 L 232.28 -17.47 C 233.58 -17.26 234.47 -16.38 234.88 -15.18 L 235.66 -15.29 L 235.66 -21.84 L 234.88 -21.84 C 234.57 -20.96 234.1 -20.23 233.38 -19.66 L 231.5 -19.45 L 221.26 -19.45 L 221.26 -34.16 L 231.3 -34.16 C 232.91 -34.16 234.47 -33.64 235.66 -32.55 C 235.98 -31.88 236.29 -31.25 236.55 -30.78 L 237.64 -30.78 L 237.64 -36.14 C 237.38 -36.24 237.07 -36.35 236.86 -36.45 C 236.39 -36.35 235.98 -36.24 235.66 -35.93 L 214.24 -35.93 L 214.34 -35.15 C 215.44 -35.05 216.42 -34.53 217.1 -33.64 L 217.1 -3.69 C 217 -2.86 216.63 -1.98 216.22 -1.09 C 215.64 -0.88 215.02 -0.78 214.34 -0.78 L 214.24 0 L 235.66 0 C 236.29 0.21 237.07 0.42 237.85 0.52 Z M 271.91 -5.51 L 270.92 -5.82 C 269.72 -3.43 267.54 -1.92 264.89 -1.72 L 253.66 -1.72 L 253.66 -33.9 C 254.18 -34.58 254.96 -35 255.84 -35.1 L 255.84 -35.78 L 246.22 -35.78 L 246.22 -35.1 C 247.73 -35 249.18 -34.11 249.18 -32.4 L 249.18 -3.64 C 249.08 -2.91 248.82 -2.03 248.3 -1.25 C 247.99 -1.04 247.42 -0.94 247 -0.94 L 247 0.05 L 270.45 0.05 Z M 304.51 -4.78 L 303.78 -5.04 C 303.42 -4.37 302.9 -3.59 302.33 -3.07 C 301.6 -2.5 300.72 -1.98 299.83 -1.77 L 287.2 -1.77 L 287.2 -17.47 L 298.22 -17.47 C 299.52 -17.26 300.4 -16.38 300.82 -15.18 L 301.6 -15.29 L 301.6 -21.84 L 300.82 -21.84 C 300.51 -20.96 300.04 -20.23 299.31 -19.66 L 297.44 -19.45 L 287.2 -19.45 L 287.2 -34.16 L 297.23 -34.16 C 298.84 -34.16 300.4 -33.64 301.6 -32.55 C 301.91 -31.88 302.22 -31.25 302.48 -30.78 L 303.58 -30.78 L 303.58 -36.14 C 303.32 -36.24 303 -36.35 302.8 -36.45 C 302.33 -36.35 301.91 -36.24 301.6 -35.93 L 280.18 -35.93 L 280.28 -35.15 C 281.37 -35.05 282.36 -34.53 283.04 -33.64 L 283.04 -3.69 C 282.93 -2.86 282.57 -1.98 282.15 -1.09 C 281.58 -0.88 280.96 -0.78 280.28 -0.78 L 280.18 0 L 301.6 0 C 302.22 0.21 303 0.42 303.78 0.52 Z M 349.23 -11.8 L 349.23 -12.53 L 340.6 -12.53 L 340.5 -11.8 L 342.68 -11.13 C 342.99 -9.83 343.1 -8.53 343.1 -7.33 C 343.1 -5.98 342.99 -4.68 342.78 -3.48 C 342.58 -3.07 342.11 -2.6 341.8 -2.29 C 339.61 -1.4 337.22 -0.78 334.78 -0.78 C 328.59 -0.78 322.14 -4.16 319.18 -9.93 C 317.98 -12.53 317.3 -15.5 317.3 -18.25 C 317.3 -23.92 319.96 -29.69 324.84 -33.18 C 327.03 -34.37 330.1 -35.15 333.06 -35.15 C 337.22 -35.15 341.48 -33.64 343.3 -30 C 343.51 -30 343.67 -29.8 343.88 -29.8 L 344.19 -29.9 L 344.19 -35.93 L 343.51 -35.93 C 343.3 -35.62 342.89 -35.36 342.58 -35.26 C 340.39 -35.93 337.95 -36.35 335.66 -36.56 C 334.67 -36.71 333.58 -36.71 332.59 -36.71 C 327.13 -36.71 321.93 -34.84 317.77 -31.1 C 314.29 -27.61 312.73 -22.93 312.73 -18.36 C 312.73 -15.5 313.4 -12.43 314.5 -9.72 C 317.67 -3.59 323.44 -0.42 330.1 0.42 L 338.05 0.42 L 346.79 -1.09 L 346.79 -8.94 C 346.79 -9.05 346.68 -9.26 346.68 -9.41 C 346.68 -10.14 347.15 -10.82 347.67 -11.34 C 348.14 -11.6 348.66 -11.8 349.23 -11.8 Z M 390.26 0.05 L 390.26 -0.62 C 389.27 -0.94 388.28 -1.14 387.61 -1.92 L 386.88 -3.54 L 374.5 -36.19 L 373.88 -36.19 L 360.67 -3.64 C 360.31 -3.02 360 -2.34 359.42 -1.82 C 358.7 -1.35 357.92 -0.94 357.14 -0.73 C 357.14 -0.62 357.03 -0.36 357.03 -0.26 C 357.03 -0.16 357.14 -0.05 357.14 0.05 L 365.56 0.05 L 365.56 -0.73 C 365.04 -0.83 364.36 -1.14 363.69 -1.46 C 363.38 -2.03 363.17 -2.7 363.17 -3.22 C 363.17 -3.54 363.38 -4.11 363.48 -4.52 L 365.46 -10.09 L 379.86 -10.09 L 382.72 -2.91 L 382.72 -2.44 C 382.72 -1.35 381.84 -0.62 380.64 -0.62 L 380.64 0.05 Z M 379.08 -12.17 L 366.44 -12.17 L 366.44 -12.53 L 373.2 -28.91 Z M 435.5 -35.1 L 435.5 -35.78 L 425.98 -35.78 L 425.98 -35 C 427.49 -34.79 429.16 -33.49 429.88 -31.93 L 429.88 -7.49 C 420.52 -16.64 411.32 -26.16 402.74 -35.88 L 401.65 -35.88 L 401.65 -3.64 C 401.28 -2.91 400.97 -2.13 400.4 -1.61 C 399.78 -1.25 399.1 -1.04 398.48 -0.73 C 398.48 -0.62 398.22 -0.16 398.22 -0.05 L 398.37 0.05 L 407.73 0.05 L 407.84 -0.73 C 405.44 -0.73 404.35 -2.81 404.25 -4.89 L 404.25 -27.04 L 431.34 0.68 L 432.33 0.68 L 432.33 -31.93 C 432.54 -33.7 433.63 -34.79 435.5 -35.1 Z M 477.26 -5.46 C 476.94 -5.46 476.48 -5.67 476.27 -5.67 C 475.28 -4.47 474.19 -3.48 473.1 -2.5 C 470.6 -1.3 467.84 -0.52 465.35 -0.52 C 459.47 -0.52 453.65 -4.06 450.74 -9.83 C 449.28 -12.53 448.4 -15.96 448.4 -18.88 C 448.4 -24.44 451.05 -30 455.94 -33.18 C 458.22 -34.37 461.29 -35.15 464.26 -35.15 C 468.73 -35.15 473.3 -33.54 475.49 -29.69 L 475.7 -29.59 C 475.85 -29.59 476.16 -29.69 476.27 -29.69 L 475.85 -35.15 C 475.38 -35.05 474.86 -34.94 474.4 -34.94 C 472.32 -35.46 470.24 -36.24 467.95 -36.45 C 466.75 -36.56 465.35 -36.71 464.26 -36.71 C 458.38 -36.71 452.24 -34.94 448.19 -30.58 C 445.12 -27.09 443.61 -22.62 443.61 -18.36 C 443.61 -14.61 444.81 -10.61 446.89 -7.33 C 450.58 -1.98 456.2 0.31 462.59 0.68 L 470.39 0.21 L 475.38 -0.52 Z M 509.5 -4.78 L 508.77 -5.04 C 508.4 -4.37 507.88 -3.59 507.31 -3.07 C 506.58 -2.5 505.7 -1.98 504.82 -1.77 L 492.18 -1.77 L 492.18 -17.47 L 503.2 -17.47 C 504.5 -17.26 505.39 -16.38 505.8 -15.18 L 506.58 -15.29 L 506.58 -21.84 L 505.8 -21.84 C 505.49 -20.96 505.02 -20.23 504.3 -19.66 L 502.42 -19.45 L 492.18 -19.45 L 492.18 -34.16 L 502.22 -34.16 C 503.83 -34.16 505.39 -33.64 506.58 -32.55 C 506.9 -31.88 507.21 -31.25 507.47 -30.78 L 508.56 -30.78 L 508.56 -36.14 C 508.3 -36.24 507.99 -36.35 507.78 -36.45 C 507.31 -36.35 506.9 -36.24 506.58 -35.93 L 485.16 -35.93 L 485.26 -35.15 C 486.36 -35.05 487.34 -34.53 488.02 -33.64 L 488.02 -3.69 C 487.92 -2.86 487.55 -1.98 487.14 -1.09 C 486.56 -0.88 485.94 -0.78 485.26 -0.78 L 485.16 0 L 506.58 0 C 507.21 0.21 507.99 0.42 508.77 0.52 Z" stroke-linecap="round" />
</g>
</g>
</g>
</svg>